# xmcd
#
# Track frame offsets: 
#        150
#        20356
#        39618
#        51619
#        75965
#        105853
#        127047
#        165345
#
# Disc length: 2432 seconds
#
# Revision: 1
# Processed by: cddbd v1.5.2PL0 Copyright (c) Steve Scherf et al.
# Submitted via: ExactAudioCopy v0.95b4
#
DISCID=57097e08
DTITLE=Entrance - Prayer Of Death
DYEAR=2006
DGENRE=Blues
TTITLE0=Grim Reaper Blues
TTITLE1=Silence on a Crowded Train
TTITLE2=Requiem for Sandy Bull (R.I.P)
TTITLE3=Valium Blues
TTITLE4=Pretty Baby
TTITLE5=Prayer of Death
TTITLE6=Lost in the Dark
TTITLE7=Never Be Afraid!
EXTD=Entrance - Prayer of Death
EXTT0=
EXTT1=
EXTT2=
EXTT3=
EXTT4=
EXTT5=
EXTT6=
EXTT7=
PLAYORDER=
